<mxfile host="app.diagrams.net" modified="2023-11-16T16:46:50.558Z" agent="Mozilla/5.0 (Macintosh; Intel Mac OS X 10_15_7) AppleWebKit/537.36 (KHTML, like Gecko) Chrome/119.0.0.0 Safari/537.36" etag="qZ6EWC6HFjhfeXN7ohA6" version="22.1.2" type="device">
  <diagram name="Page-1" id="mKafcgrX6WGAY2GhKwY2">
    <mxGraphModel dx="861" dy="843" grid="0" gridSize="10" guides="1" tooltips="1" connect="1" arrows="1" fold="1" page="1" pageScale="1" pageWidth="850" pageHeight="1100" math="0" shadow="0">
      <root>
        <mxCell id="0" />
        <mxCell id="1" parent="0" />
        <mxCell id="Qw3Yt9SW6tyqdMe8LcEd-3" value="" style="image;points=[];aspect=fixed;html=1;align=center;shadow=0;dashed=0;image=img/lib/allied_telesis/computer_and_terminals/Server_Desktop.svg;" vertex="1" parent="1">
          <mxGeometry x="500" y="170.2" width="42.599999999999994" height="54" as="geometry" />
        </mxCell>
        <mxCell id="Qw3Yt9SW6tyqdMe8LcEd-4" value="" style="image;points=[];aspect=fixed;html=1;align=center;shadow=0;dashed=0;image=img/lib/allied_telesis/computer_and_terminals/Personal_Computer_with_Server.svg;" vertex="1" parent="1">
          <mxGeometry x="250" y="166" width="62.400000000000006" height="62.400000000000006" as="geometry" />
        </mxCell>
        <mxCell id="Qw3Yt9SW6tyqdMe8LcEd-5" value="" style="endArrow=none;html=1;rounded=0;" edge="1" parent="1">
          <mxGeometry width="50" height="50" relative="1" as="geometry">
            <mxPoint x="280" y="490" as="sourcePoint" />
            <mxPoint x="280" y="240" as="targetPoint" />
          </mxGeometry>
        </mxCell>
        <mxCell id="Qw3Yt9SW6tyqdMe8LcEd-6" value="" style="endArrow=none;html=1;rounded=0;" edge="1" parent="1">
          <mxGeometry width="50" height="50" relative="1" as="geometry">
            <mxPoint x="519" y="560" as="sourcePoint" />
            <mxPoint x="519" y="240" as="targetPoint" />
          </mxGeometry>
        </mxCell>
        <mxCell id="Qw3Yt9SW6tyqdMe8LcEd-7" value="" style="endArrow=classic;html=1;rounded=0;fillColor=#0050ef;strokeColor=#001DBC;strokeWidth=2;" edge="1" parent="1">
          <mxGeometry relative="1" as="geometry">
            <mxPoint x="280" y="270" as="sourcePoint" />
            <mxPoint x="510" y="340" as="targetPoint" />
          </mxGeometry>
        </mxCell>
        <mxCell id="Qw3Yt9SW6tyqdMe8LcEd-8" value="SYNbit=1, Seq=25&lt;br&gt;No data" style="edgeLabel;resizable=0;html=1;align=center;verticalAlign=middle;" connectable="0" vertex="1" parent="Qw3Yt9SW6tyqdMe8LcEd-7">
          <mxGeometry relative="1" as="geometry" />
        </mxCell>
        <mxCell id="Qw3Yt9SW6tyqdMe8LcEd-9" value="" style="endArrow=classic;html=1;rounded=0;fillColor=#0050ef;strokeColor=#001DBC;strokeWidth=2;" edge="1" parent="1">
          <mxGeometry relative="1" as="geometry">
            <mxPoint x="510" y="350" as="sourcePoint" />
            <mxPoint x="280" y="430" as="targetPoint" />
          </mxGeometry>
        </mxCell>
        <mxCell id="Qw3Yt9SW6tyqdMe8LcEd-10" value="SYNbit=1, Seq=89&lt;br&gt;ACKbit=1, Ack=26&lt;br&gt;No data" style="edgeLabel;resizable=0;html=1;align=center;verticalAlign=middle;" connectable="0" vertex="1" parent="Qw3Yt9SW6tyqdMe8LcEd-9">
          <mxGeometry relative="1" as="geometry" />
        </mxCell>
        <mxCell id="Qw3Yt9SW6tyqdMe8LcEd-11" value="" style="endArrow=classic;html=1;rounded=0;fillColor=#0050ef;strokeColor=#001DBC;strokeWidth=2;" edge="1" parent="1">
          <mxGeometry relative="1" as="geometry">
            <mxPoint x="280" y="440" as="sourcePoint" />
            <mxPoint x="520" y="510" as="targetPoint" />
          </mxGeometry>
        </mxCell>
        <mxCell id="Qw3Yt9SW6tyqdMe8LcEd-12" value="SYNbit=0, ACKbit=1&lt;br&gt;Ack=90, Data" style="edgeLabel;resizable=0;html=1;align=center;verticalAlign=middle;" connectable="0" vertex="1" parent="Qw3Yt9SW6tyqdMe8LcEd-11">
          <mxGeometry relative="1" as="geometry" />
        </mxCell>
      </root>
    </mxGraphModel>
  </diagram>
</mxfile>
